<svg version="1.1" id="Layer_1" xmlns:x="ns_extend;" xmlns:i="ns_ai;" xmlns:graph="ns_graphs;" xmlns="http://www.w3.org/2000/svg" xmlns:xlink="http://www.w3.org/1999/xlink" x="0px" y="0px" viewBox="0 0 272.6 62" style="enable-background:new 0 0 272.6 62;" xml:space="preserve">
 <style type="text/css">
  .st0{fill:#161616;}
 </style>
 <metadata>
  <sfw xmlns="ns_sfw;">
   <slices>
   </slices>
   <sliceSourceBounds bottomLeftOrigin="true" height="62" width="272.6" x="-79.2" y="-18">
   </sliceSourceBounds>
  </sfw>
 </metadata>
 <g>
  <path class="st0" d="M99,9.6h5l17.3,40.5h-6.4l-4.1-10H91.6l-4,10h-6.4L99,9.6z M108.8,35.3l-7.6-18.6h-0.1l-7.7,18.6H108.8z">
  </path>
  <path class="st0" d="M139.8,27.4h-7.4v12.3c0,0.8,0,1.5,0.1,2.3c0,0.7,0.2,1.4,0.4,2c0.3,0.6,0.6,1,1.1,1.4
		c0.5,0.3,1.3,0.5,2.3,0.5c0.6,0,1.2-0.1,1.9-0.2c0.6-0.1,1.2-0.3,1.8-0.6v4.7c-0.6,0.3-1.4,0.6-2.4,0.7c-1,0.2-1.7,0.2-2.2,0.2
		c-2,0-3.5-0.3-4.6-0.8c-1.1-0.6-1.9-1.3-2.4-2.2c-0.5-0.9-0.8-1.9-0.9-2.9c-0.1-1.1-0.1-2.2-0.1-3.3V27.4h-6v-4.5h6v-7.6h5.2v7.6
		h7.4V27.4z">
  </path>
  <path class="st0" d="M146.4,6.8h5.2v20.3h0.1c0.6-1.4,1.8-2.6,3.4-3.5c1.6-0.9,3.5-1.4,5.6-1.4c1.3,0,2.5,0.2,3.7,0.6
		c1.2,0.4,2.3,1,3.1,1.8c0.9,0.8,1.6,1.9,2.2,3.3c0.5,1.3,0.8,2.8,0.8,4.6v17.5h-5.2v-16c0-1.3-0.2-2.3-0.5-3.2
		c-0.3-0.9-0.8-1.6-1.4-2.2c-0.6-0.6-1.2-1-2-1.2c-0.7-0.3-1.5-0.4-2.3-0.4c-1.1,0-2.1,0.2-3,0.5c-0.9,0.3-1.7,0.9-2.4,1.7
		c-0.7,0.7-1.2,1.7-1.6,2.8c-0.4,1.1-0.6,2.5-0.6,4.1v14h-5.2V6.8z">
  </path>
  <path class="st0" d="M182.1,38.4c0,1.2,0.2,2.3,0.7,3.3c0.5,1,1.2,1.8,2.1,2.5c0.8,0.7,1.8,1.2,2.9,1.6c1.1,0.4,2.3,0.6,3.4,0.6
		c1.6,0,3-0.4,4.2-1.1c1.2-0.8,2.3-1.8,3.3-3l3.9,3c-2.9,3.7-6.9,5.6-12,5.6c-2.1,0-4.1-0.4-5.8-1.1c-1.7-0.7-3.2-1.7-4.4-3
		c-1.2-1.3-2.1-2.8-2.7-4.5c-0.6-1.8-1-3.6-1-5.7c0-2,0.3-3.9,1-5.6c0.7-1.8,1.7-3.3,2.9-4.5c1.3-1.3,2.7-2.3,4.5-3
		c1.7-0.7,3.6-1.1,5.6-1.1c2.4,0,4.4,0.4,6.1,1.3c1.7,0.8,3.1,1.9,4.1,3.3c1.1,1.3,1.8,2.9,2.3,4.6c0.5,1.7,0.7,3.4,0.7,5.2v1.8
		H182.1z M198.4,34.3c0-1.1-0.2-2.2-0.6-3.1c-0.3-1-0.8-1.8-1.4-2.5c-0.6-0.7-1.5-1.3-2.5-1.7c-1-0.4-2.1-0.6-3.4-0.6
		c-1.3,0-2.4,0.2-3.5,0.7c-1,0.5-1.9,1.1-2.6,1.8c-0.7,0.8-1.3,1.6-1.7,2.6c-0.4,0.9-0.6,1.8-0.6,2.7H198.4z">
  </path>
  <path class="st0" d="M210.5,6.8h5.2v43.3h-5.2V6.8z">
  </path>
  <path class="st0" d="M223.9,26.3c1.4-1.3,3.1-2.3,5-3c1.9-0.7,3.8-1,5.7-1c2,0,3.7,0.2,5.1,0.7c1.4,0.5,2.6,1.2,3.5,2
		c0.9,0.8,1.6,1.8,2,2.9c0.5,1.1,0.7,2.2,0.7,3.4v13.8c0,1,0,1.8,0.1,2.6c0,0.8,0.1,1.6,0.2,2.3h-4.6c-0.1-1.4-0.2-2.7-0.2-4.1h-0.1
		c-1.1,1.8-2.5,3-4.1,3.7c-1.6,0.7-3.4,1.1-5.4,1.1c-1.3,0-2.5-0.2-3.6-0.5c-1.1-0.3-2.2-0.9-3-1.5c-0.8-0.7-1.5-1.5-2-2.5
		c-0.5-1-0.7-2.2-0.7-3.5c0-1.8,0.4-3.2,1.1-4.4c0.8-1.2,1.9-2.1,3.2-2.9c1.4-0.8,3-1.3,4.8-1.6c1.8-0.3,3.8-0.5,5.8-0.5h3.8v-1.1
		c0-0.7-0.1-1.4-0.4-2.1c-0.3-0.7-0.7-1.3-1.2-1.8c-0.5-0.6-1.2-1-2-1.3c-0.8-0.3-1.8-0.5-2.9-0.5c-1,0-1.9,0.1-2.6,0.3
		c-0.7,0.2-1.4,0.4-2,0.7c-0.6,0.3-1.2,0.6-1.7,1c-0.5,0.4-1,0.7-1.4,1.1L223.9,26.3z M238.5,37c-1.2,0-2.5,0.1-3.8,0.2
		c-1.3,0.1-2.4,0.4-3.5,0.7c-1,0.4-1.9,0.9-2.6,1.6c-0.6,0.7-1,1.6-1,2.6c0,1.6,0.5,2.7,1.5,3.4c1.1,0.7,2.5,1,4.3,1
		c1.4,0,2.6-0.2,3.6-0.7c1-0.5,1.8-1.1,2.4-1.9s1-1.6,1.3-2.5c0.3-1,0.4-1.9,0.4-2.8V37H238.5z">
  </path>
  <path class="st0" d="M267.9,29.8c-0.6-0.8-1.4-1.4-2.3-1.9c-0.9-0.5-2-0.8-3.3-0.8c-1.2,0-2.3,0.3-3.2,0.8
		c-0.9,0.5-1.3,1.2-1.3,2.2c0,0.8,0.2,1.4,0.7,1.9c0.5,0.5,1.1,0.9,1.8,1.2c0.7,0.3,1.5,0.5,2.3,0.7s1.5,0.3,2.1,0.4
		c1.1,0.3,2.1,0.6,3.1,1c1,0.4,1.8,0.9,2.5,1.5c0.7,0.6,1.3,1.4,1.7,2.2c0.4,0.9,0.6,1.9,0.6,3.2c0,1.5-0.3,2.8-1,3.9
		c-0.6,1.1-1.5,1.9-2.5,2.6c-1,0.7-2.2,1.2-3.5,1.5c-1.3,0.3-2.6,0.5-3.9,0.5c-2.3,0-4.2-0.3-6-1c-1.7-0.7-3.2-1.9-4.5-3.8l3.9-3.2
		c0.8,0.8,1.8,1.6,2.8,2.2c1,0.6,2.3,1,3.8,1c0.6,0,1.3-0.1,1.9-0.2c0.7-0.2,1.3-0.4,1.8-0.6c0.5-0.3,1-0.7,1.3-1.1
		c0.3-0.5,0.5-1,0.5-1.5c0-0.8-0.2-1.4-0.7-1.9c-0.5-0.5-1-0.9-1.7-1.1c-0.6-0.3-1.4-0.5-2.1-0.7c-0.7-0.2-1.4-0.3-1.9-0.5
		c-1.1-0.3-2.2-0.6-3.1-0.9c-1-0.3-1.9-0.8-2.6-1.4s-1.4-1.3-1.8-2.2c-0.5-0.9-0.7-2-0.7-3.3c0-1.4,0.3-2.6,0.9-3.7
		c0.6-1.1,1.4-1.9,2.3-2.6c1-0.7,2.1-1.2,3.3-1.5c1.3-0.3,2.5-0.5,3.8-0.5c1.8,0,3.6,0.3,5.3,1c1.7,0.7,3,1.8,4,3.4L267.9,29.8z">
  </path>
  <path class="st0" d="M31,52.5c11.9,0,21.5-9.6,21.5-21.5c0-11.9-9.6-21.5-21.5-21.5C19.1,9.5,9.5,19.1,9.5,31
		C9.5,42.9,19.1,52.5,31,52.5z M31,62C13.9,62,0,48.1,0,31S13.9,0,31,0s31,13.9,31,31S48.1,62,31,62z">
  </path>
 </g>
</svg>